<svg version="1.0" xmlns="http://www.w3.org/2000/svg" width="682.667" height="682.667" viewBox="0 0 512 512"><g fill="#fff"><path d="M203.4 1.4C201.6 2.2 156 40.7 102 87-2.5 176.6 0 174.2 0 183c0 4.1 2.9 10.8 5.6 13.2 2.9 2.6 8.9 4.8 12.9 4.8 4.6 0 9.3-2 13.7-5.9 2-1.7 3.8-3.1 4.2-3.1.3 0 .6 40 .6 88.9 0 60.6.3 89.9 1.1 91.8 1.5 4 4.8 7.3 9.4 9.4 3.8 1.8 8.8 1.9 98.9 1.9 94.8 0 95 0 99.4-2.1 7.8-3.8 12-13.8 9.3-22.2-1.5-4.5-7.8-10.2-12.8-11.6-2.5-.7-31.3-1.1-86.5-1.1H73V160.1l68.1-58.3c37.4-32.1 68.4-58.4 68.9-58.6.5-.2 31.4 25.8 68.7 57.8l67.8 58.1.6 14.2c.6 15.3 1.4 18 6.6 22.9 7.5 7.2 20.2 6.1 26.2-2.3l2.8-3.7 4.4 3.7c6 5.2 10.1 7.1 14.8 7.1 7.2 0 13.4-3.8 16.8-10.4 2.1-4 2-11.3-.1-15.8-1.3-2.7-26.4-24.8-98.3-86.5-53-45.5-98.7-84-101.5-85.6-5.5-3-10.5-3.4-15.4-1.3z"/><path d="M357 220c-19.1 2.3-33.8 9.2-47.9 22.6-16.8 15.8-25.4 36.2-25.3 59.9.1 18.5 6 35.3 17.6 50.2l5.4 6.9-7.2 3.7c-47.4 24.4-78.8 73.6-79.8 125.1-.2 10.8.7 13.9 5.4 18.3 5.9 5.6-1.5 5.3 141 5.3h131.2l4.4-2.1c2.6-1.3 5.4-3.7 7-6.2 2.6-3.9 2.7-4.7 2.6-15.6-.2-25.7-8.8-52.3-24.5-76.1-12.4-18.8-37-40.2-56.6-49.4l-6.1-2.9 4.8-5.8c29.7-35.6 23.6-89.1-13.3-117.3-16.7-12.7-38.8-19-58.7-16.6zm18.2 37.1c13.6 2.9 25.4 12.1 31.6 24.8 3.6 7.5 3.7 7.8 3.7 19.6 0 11.7-.1 12.2-3.6 19.5-4.8 10.2-11.6 17-21.6 21.7-18.3 8.8-40.6 4.2-54-11.1-15.7-17.8-14.7-45.3 2.1-62.2 10.9-10.9 26.6-15.5 41.8-12.3zm13.6 129.3c39.8 8.6 72.4 39.6 82.7 78.6 1.4 5.2 2.5 9.6 2.5 9.7 0 .2-48.6.3-108 .3-100.6 0-108-.1-108-1.7 0-3.8 4.4-17.4 8.5-26 5.9-12.6 12.9-22.4 22.8-32 16.4-15.9 35.8-25.9 57.9-29.8 10.3-1.8 31.3-1.3 41.6.9z"/></g></svg>