<svg version="1.0" xmlns="http://www.w3.org/2000/svg" width="682.667" height="682.667" viewBox="0 0 512 512"><g fill="#fff"><path d="M203.4 1.4C201.6 2.2 156 40.7 102 87-2.1 176.3.1 174.2 0 182.8c0 3.7 2.3 9.7 4.8 12.5 2.8 3.1 8.8 5.7 13.2 5.7 5.1 0 9.6-1.9 14.2-5.9 2-1.7 3.8-3.1 4.2-3.1.3 0 .6 40 .6 88.9 0 60.6.3 89.9 1.1 91.8 1.5 4 4.8 7.3 9.4 9.4 3.8 1.8 10.6 1.9 162.9 1.9h159l4.4-2.1c13.2-6.5 13.2-25.4-.2-32.7-2.9-1.6-13.6-1.7-151.8-2L73 347V160.1l68-58.3c37.5-32.1 68.5-58.4 69-58.6.5-.2 31.4 25.8 68.7 57.8l67.8 58.1.5 14.2c.5 13.2.7 14.5 3.2 18.9 6.4 10.8 22.5 11.8 29.7 1.7l2.8-3.7 4.4 3.7c6 5.2 10.1 7.1 14.8 7.1 7.2 0 13.4-3.8 16.8-10.4 2.1-4 2-11.3-.1-15.8-1.3-2.7-26.3-24.7-98.4-86.5-53.1-45.5-98.1-83.8-99.9-85.1-4.3-3-12.5-3.8-16.9-1.8z"/><path d="M288.5 219.9c-6.6 1.7-11.7 6.5-13.5 12.9-1.5 5.4-1.3 78.9.2 83.3 1.8 5.2 4.8 8.7 9.3 10.9 4 1.9 6.2 2 81.4 2 73.8 0 77.3-.1 80.9-1.9 8-4.1 10.2-9.2 10.2-23.6V293h18v71.5l-58.3 33.3c-32 18.3-59.7 34.2-61.5 35.3-1.8 1.2-4.3 4-5.5 6.3-2.1 3.9-2.2 5.6-2.5 29.3-.4 28.2.1 31.4 5.4 37.3 6.1 6.7 15.5 7.8 23.3 2.7 7.1-4.7 8.1-8.4 8.1-30.8l.1-19.4 59.6-34c32.8-18.7 60.7-34.9 62.1-35.9 1.3-1.1 3.3-3.8 4.3-6 1.7-3.8 1.9-7.7 1.9-58 0-53 0-54-2.1-58.4-1.3-2.6-3.8-5.4-6.2-7-4-2.7-4.1-2.7-25.4-3l-21.3-.3V245c0-11.9-.8-15.1-4.8-19.3-6.2-6.6-1-6.2-84.7-6.4-41.8-.1-77.3.2-79 .6zm132.3 54.3-.3 18.3-54.7.3-54.8.2v-37h110l-.2 18.2z"/></g></svg>