<svg version="1.0" xmlns="http://www.w3.org/2000/svg" width="682.667" height="682.667" viewBox="0 0 512 512"><g fill="#fff"><path d="M203.4 1.4C201.6 2.2 156 40.7 102 87-2.5 176.6 0 174.2 0 183c0 4.1 2.9 10.8 5.6 13.2 2.9 2.6 8.9 4.8 12.9 4.8 4.6 0 9.3-2 13.7-5.9 2-1.7 3.8-3.1 4.2-3.1.3 0 .6 40 .6 88.9 0 60.6.3 89.9 1.1 91.8 1.5 4 4.8 7.3 9.4 9.4 3.8 1.7 8 1.9 71.5 1.9 63.6 0 67.7-.2 71.6-1.9 13.3-6 13.8-24.9.9-32.3l-4-2.3-57.2-.3-57.3-.3V160.1l68-58.3c37.5-32.1 68.5-58.4 69-58.6.5-.2 31.4 25.8 68.7 57.8l67.8 58.1.5 14.2c.6 16 2 20.1 8.6 24.6 7.6 5.2 20 3 25-4.6l2.1-3.1 4.6 3.9c10.5 9 20.8 9.2 28.4.6 6.4-7.2 6.3-17.1-.1-24.1C412.3 166.9 225.7 7 220.2 3.2c-4.1-2.9-12.4-3.8-16.8-1.8z"/><path d="M361 220.2c-4.8 1.3-8.4 4.2-11.2 8.6-2.1 3.4-2.3 5-2.6 20.9l-.4 17.1-6.3 1.6c-7.9 2-20.5 7.3-27 11.4l-5 3.1-12-11.9c-6.6-6.5-13.3-12.4-14.8-13-6.2-2.2-15.8 0-19.9 4.6-4.3 4.8-5.9 13.3-3.8 19.1.6 1.5 6.5 8.2 13 14.8l11.9 12-3.6 6c-4.2 7.1-9.5 19.9-11.2 27.2l-1.3 5.1-17.3.4-17.3.3-4.3 3c-9.8 6.9-11.1 20.4-2.7 28.2 4.8 4.5 8.7 5.3 25.6 5.3h16l1.7 6.7c2.1 8.8 6.7 19.6 11 26.4l3.4 5.4-11.4 11.5c-11.7 11.8-14.5 16.1-14.5 22.4 0 6.6 4 13 10.2 16.2 3.6 1.9 12.1 1.8 16.1-.2 1.8-.9 8.2-6.5 14.2-12.5l11-10.8 12 5.9c6.6 3.3 15.3 6.8 19.2 7.8l7.3 1.7v15c0 8.2.5 16.7 1.1 18.8 1.3 4.7 6.3 10.6 10.6 12.3 7.7 3.2 17.4.2 22.1-6.9 2.6-3.9 2.7-4.6 3.2-21.5l.5-17.4 8.4-2.4c8.3-2.4 19.1-7.2 26.4-11.5l3.7-2.3 11.8 11.6c6.4 6.4 12.7 12.1 13.9 12.7 1.2.6 4.6 1.1 7.5 1.1 10.5 0 17.8-7.3 17.8-17.8 0-2.9-.5-6.3-1.1-7.5-.6-1.2-6.3-7.5-12.7-13.9L448.6 423l2.3-3.7c4.3-7.3 9.1-18.1 11.5-26.4l2.4-8.4 17.4-.5c16.9-.5 17.6-.6 21.5-3.2 7.1-4.7 10.1-14.4 6.9-22.1-1.7-4.3-7.6-9.3-12.3-10.6-2.1-.6-10.5-1.1-18.8-1.1h-15l-1.7-7.3c-1-3.9-4.5-12.6-7.8-19.2l-5.9-12 10.8-11c6-6.1 11.6-12.4 12.5-14.2 2-4 2.1-12.5.2-16.1-4.7-9.1-14.9-12.6-24.1-8.3-2.2 1-8.9 6.8-14.9 12.9l-10.8 10.9-6.7-3.8c-7.4-4.4-18.9-9-26.8-10.9l-5.3-1.2v-15.9c0-17-.8-20.9-5.3-25.7-4.4-4.7-11.6-6.8-17.7-5zm19.8 83.3c18 4.3 34.3 17.4 42.2 34 5 10.6 6.5 17 6.4 28.5-.2 24.4-13.1 45.6-34.5 56.5-10 5.1-17.8 6.9-29.9 6.8-16.4-.1-30.1-5.3-41.7-15.7-13.9-12.5-21.3-29-21.3-47.7 0-29.5 19.1-54.5 47.4-61.9 8.7-2.3 22.7-2.5 31.4-.5z"/></g></svg>