<svg version="1.0" xmlns="http://www.w3.org/2000/svg" width="682.667" height="682.667" viewBox="0 0 512 512">
<path fill="#fff" d="M247.4 8.8c-7 2.5-12.4 7.1-16 13.4l-2.9 5.3-.3 25.4c-.2 14-.1 26.5.3 27.8.8 3.4 6.3 5.6 10.4 4.2 1.7-.6 3.6-1.9 4.1-2.9.6-1.1 1-12.1 1-25.7 0-22.1.2-24 2-27.1 1.2-1.9 3.7-4 5.8-4.9 5-2.1 10.7-.2 13.9 4.6 2.2 3.3 2.3 4.1 2.3 27.3 0 13.7.4 24.7 1 25.8 1.3 2.5 6.5 4.1 9.5 3 5.4-2.1 5.7-3.6 5.3-31.7-.3-24.6-.4-26-2.6-30-6.8-12.8-21.2-19-33.8-14.5z"/>
<path fill="#fff" d="M194.1 55.7c-16.6 15-27.6 37.2-29.7 59.7l-.7 7.3-6 4.4c-5.9 4.3-10.9 10.8-13.6 17.7-1.8 4.3-.9 11.2 1.9 15 3.6 4.8 7.5 6.2 17.8 6.2h8.9l.6 11.2c1 20.6 8.1 37.7 21.6 52 17.5 18.6 36.1 27 60.6 27.2 14.3.1 22.9-1.7 35.5-7.6 29.3-13.5 48-42.7 48-74.9V166h9.5c10.6 0 15.5-1.7 19.4-6.6 6.4-8.2-1.8-26.9-15.3-34.8l-4.2-2.5-1.2-8.9c-3-22.1-13-41.5-29.2-56.5-5.2-4.9-6.7-5.7-10-5.7-3 0-4.3.6-6 2.7-3.3 4.3-2.1 7.8 5.4 14.8 14.2 13.3 21.5 27.2 24.1 45.7l.7 4.8H179.9l.7-5.8c1.3-11.1 6-23.4 12.7-33.1 1.7-2.4 6.3-7.6 10.3-11.5 8.5-8.2 9.8-11.5 6.4-15.9-1.7-2.1-3-2.7-5.9-2.7-3.2 0-4.7.9-10 5.7zM342.6 138c4.8 2.7 9.4 8.1 9.4 10.9 0 .8-25.3 1.1-96.5 1.1-53.1 0-96.5-.4-96.5-.8 0-.5 1.3-2.8 3-5 3-4.2 7.2-7 12.5-8.3 1.7-.4 39-.7 83-.8l80-.1 5.1 3zM323 174.3c0 25.5-16.1 49.8-40.2 60.6-9.2 4.1-16.1 5.5-26.8 5.5-11.6 0-18.1-1.4-28.5-6.5-19-9.1-31.3-24.1-36.5-44.5-1.9-7.4-2.7-20.4-1.3-21.7.3-.4 30.5-.7 67-.7H323v7.3z"/>
<path fill="#fff" d="M36.9 223c-7.4 1.2-17.1 4.5-21.8 7.4C.7 239.5-4 257.1 3.7 273c1.7 3.6 9.1 22 16.3 41 7.9 20.6 14 35.2 15.2 36.2 3.9 3.4 9.7 1.9 11.7-3 1.1-2.7.4-5.1-8.2-27.8-5.2-13.7-9.8-25.6-10.1-26.4-.6-1.3 25.1-1.5 226.9-1.5 125.1 0 227.5.1 227.5.2s-4.3 11.3-9.5 25c-5.2 13.6-9.5 26.3-9.5 28 0 5.7 5.6 8.9 11.5 6.7 2.3-.9 3.3-3.2 17-38.9 8.8-22.9 13.6-33.9 16-37.1l3.5-4.6v-12.2c0-11.7-.1-12.4-2.8-16.7-5.3-8.3-12.7-13.2-25.2-16.6-5.1-1.4-10.3-1.8-23.5-1.8-16.5 0-17.2.1-22.5 2.7-3 1.5-8 5.1-11 8l-5.6 5.3-4.3 17.7-4.3 17.8H98.4l-3.1-13.3c-1.8-7.2-3.7-15.5-4.3-18.2-1.7-7.7-6.7-13.7-14.6-17.6-6.6-3.3-7.2-3.4-20.3-3.6-7.5-.1-16.1.2-19.2.7zm30.8 16.1c3.8 1.4 7.3 4.8 7.3 7.1 0 2.8-5.5 4.7-17.7 6.2-9 1-10.9 1.6-12.4 3.5-2.7 3.4-2.3 6.8 1.1 10.3 3 2.9 3.1 3 10.8 2.3 7.2-.6 17.7-2.6 21.3-4 1.2-.5 1.8.1 2.2 2.3.3 1.6.9 4.1 1.2 5.4l.6 2.4-25.8-.4c-27.2-.5-28.8-.7-34.1-5.6-3.5-3.1-5.2-7-5.2-11.9 0-8.5 6.7-14.5 19.2-17.2 7.6-1.6 27.6-1.9 31.5-.4zm407.3.9c7.9 1.5 15.3 5.2 18.1 9.1 3.6 5.2 3.4 12.5-.7 17.6-1.6 2.1-5 4.8-7.4 6-4.3 2.2-5.4 2.3-30.3 2.3-22.1 0-25.8-.2-25.4-1.4.3-.8.9-3.1 1.3-5 .3-2 .9-3.8 1.3-4 .4-.3 3.2.4 6.3 1.5 7 2.3 23.2 3.9 27.1 2.6 3.2-1.1 4.7-3.4 4.7-7.4 0-4.6-3.1-7.1-9.7-7.7-15.2-1.6-23.3-3.7-23.3-6.1 0-1.9 3.1-5.3 6.5-7 3.6-1.8 23.1-2.1 31.5-.5zm-76 113.9c-11.2 3.7-17.2 11.5-21.2 27.8-2.9 11.8-3.1 32-.4 40.8 8.4 27.8 32.2 39.8 63.1 31.9 25.5-6.6 43.2-30 48.9-64.4 2.2-13.5.2-20.4-7.5-26-6.3-4.5-10-5.4-20.4-4.6-8 .5-11.2.2-24.1-2.4-15.3-3.2-33.8-4.7-38.4-3.1zm22 17.5c27.6 5.8 27.3 5.8 37.6 5.2 9-.6 10.4-.4 12.4 1.2 3.1 2.5 3 8.3-.4 21.3-5.2 20.7-15.6 33.6-31.2 38.9-12.6 4.4-26.5 3.4-35.1-2.3-12.4-8.3-16.6-32.5-9.8-55.6 2.4-8 5.3-10.1 13.4-10.1 3.6.1 9.5.7 13.1 1.4zM94.2 355.1c-4.1.5-11.3 1.9-16 3.1-7 1.7-11.8 2.2-24.2 2.3-12.4.1-16.1.4-18.6 1.8-4.4 2.3-8.7 6.8-11 11.4-5.5 11.1 2.3 42.1 14.9 59 13.7 18.4 39 27.7 62 22.8 23.1-4.9 34.7-21.7 34.7-50.4 0-12.4-1.2-21-4.2-30.1-1.7-5.2-3.3-7.6-7.7-12-7.7-7.6-15.4-9.7-29.9-7.9zm18.2 16.1c5.7 2.5 9.2 17.4 8.4 35.5-.8 17-5.9 26.8-16.4 31.4-9.5 4.3-26.2 3.1-37.5-2.6-14.1-7.2-24.6-25.8-27.3-48.7-.7-5.2-.5-6 1.7-8.2 2.4-2.3 3-2.4 15.8-2.5 11.2 0 15.6-.5 26.4-3 13.8-3.1 24.7-3.9 28.9-1.9zM85 466.8c-3.9 3.9-3.9 7.2.1 15.1 5.6 11.2 16.3 19.4 28.7 22 7 1.5 276.5 1.6 284.2.1 11.9-2.2 23-10 28.2-19.7 5.1-9.4 4.6-15.9-1.3-18.4-4.8-1.9-8.1.2-11.9 7.7-1.7 3.5-4.8 7.8-6.9 9.4-7.5 6.3-.2 6-150.1 6-150.7 0-143.2.3-150.6-6.2-3.5-3.1-7.4-9.5-7.4-12.1 0-1.9-4-5.4-7.2-6.2-2.2-.6-3.3-.1-5.8 2.3z"/></svg>