<?xml version="1.0" standalone="no"?>
<!DOCTYPE svg PUBLIC "-//W3C//DTD SVG 20010904//EN"
 "http://www.w3.org/TR/2001/REC-SVG-20010904/DTD/svg10.dtd">
<svg version="1.0" xmlns="http://www.w3.org/2000/svg"
 width="512.000000pt" height="512.000000pt" viewBox="0 0 512.000000 512.000000"
 preserveAspectRatio="xMidYMid meet">

<g transform="translate(0.000000,512.000000) scale(0.100000,-0.100000)"
fill="#fff" stroke="none">
<path d="M2034 5106 c-18 -8 -474 -393 -1014 -856 -1041 -893 -1019 -872
-1020 -958 0 -37 23 -97 48 -125 28 -31 88 -57 132 -57 51 0 96 19 142 59 20
17 38 31 42 31 3 0 6 -400 6 -889 0 -606 3 -899 11 -918 15 -40 48 -73 94 -94
38 -18 106 -19 1629 -19 l1590 0 44 21 c132 65 132 254 -2 327 -29 16 -136 17
-1518 20 l-1488 2 0 934 0 935 680 583 c375 321 685 584 690 586 5 2 314 -258
687 -578 l678 -581 5 -142 c5 -132 7 -145 32 -189 64 -108 225 -118 297 -17
l28 37 44 -37 c60 -52 101 -71 148 -71 72 0 134 38 168 104 21 40 20 113 -1
158 -13 27 -263 247 -984 865 -531 455 -981 838 -999 851 -43 30 -125 38 -169
18z"/>
<path d="M2885 2921 c-66 -17 -117 -65 -135 -129 -15 -54 -13 -789 2 -833 18
-52 48 -87 93 -109 40 -19 62 -20 814 -20 738 0 773 1 809 19 80 41 102 92
102 236 l0 105 90 0 90 0 0 -357 0 -358 -583 -333 c-320 -183 -597 -342 -615
-353 -18 -12 -43 -40 -55 -63 -21 -39 -22 -56 -25 -293 -4 -282 1 -314 54
-373 61 -67 155 -78 233 -27 71 47 81 84 81 308 l1 194 596 340 c328 187 607
349 621 359 13 11 33 38 43 60 17 38 19 77 19 580 0 530 0 540 -21 584 -13 26
-38 54 -62 70 -40 27 -41 27 -254 30 l-213 3 0 109 c0 119 -8 151 -48 193 -62
66 -10 62 -847 64 -418 1 -773 -2 -790 -6z m1323 -543 l-3 -183 -547 -3 -548
-2 0 185 0 185 550 0 550 0 -2 -182z"/>
</g>
</svg>
