<?xml version="1.0" standalone="no"?>
<!DOCTYPE svg PUBLIC "-//W3C//DTD SVG 20010904//EN"
 "http://www.w3.org/TR/2001/REC-SVG-20010904/DTD/svg10.dtd">
<svg version="1.0" xmlns="http://www.w3.org/2000/svg"
 width="512.000000pt" height="512.000000pt" viewBox="0 0 512.000000 512.000000"
 preserveAspectRatio="xMidYMid meet">

<g transform="translate(0.000000,512.000000) scale(0.100000,-0.100000)"
fill="#fff" stroke="none">
<path d="M2034 5106 c-18 -8 -474 -393 -1014 -856 -1045 -896 -1020 -872
-1020 -960 0 -41 29 -108 56 -132 29 -26 89 -48 129 -48 46 0 93 20 137 59 20
17 38 31 42 31 3 0 6 -400 6 -889 0 -606 3 -899 11 -918 15 -40 48 -73 94 -94
38 -17 80 -19 715 -19 636 0 677 2 716 19 133 60 138 249 9 323 l-40 23 -572
3 -573 3 0 934 0 934 680 583 c375 321 685 584 690 586 5 2 314 -258 687 -578
l678 -581 5 -142 c6 -160 20 -201 86 -246 76 -52 200 -30 250 46 l21 31 46
-39 c105 -90 208 -92 284 -6 64 72 63 171 -1 241 -33 37 -1899 1636 -1954
1674 -41 29 -124 38 -168 18z"/>
<path d="M3610 2918 c-48 -13 -84 -42 -112 -86 -21 -34 -23 -50 -26 -209 l-4
-171 -63 -16 c-79 -20 -205 -73 -270 -114 l-50 -31 -120 119 c-66 65 -133 124
-148 130 -62 22 -158 0 -199 -46 -43 -48 -59 -133 -38 -191 6 -15 65 -82 130
-148 l119 -120 -36 -60 c-42 -71 -95 -199 -112 -272 l-13 -51 -173 -4 -173 -3
-43 -30 c-98 -69 -111 -204 -27 -282 48 -45 87 -53 256 -53 l160 0 17 -67 c21
-88 67 -196 110 -264 l34 -54 -114 -115 c-117 -118 -145 -161 -145 -224 0 -66
40 -130 102 -162 36 -19 121 -18 161 2 18 9 82 65 142 125 l110 108 120 -59
c66 -33 153 -68 192 -78 l73 -17 0 -150 c0 -82 5 -167 11 -188 13 -47 63 -106
106 -123 77 -32 174 -2 221 69 26 39 27 46 32 215 l5 174 84 24 c83 24 191 72
264 115 l37 23 118 -116 c64 -64 127 -121 139 -127 12 -6 46 -11 75 -11 105 0
178 73 178 178 0 29 -5 63 -11 75 -6 12 -63 75 -127 139 l-116 118 23 37 c43
73 91 181 115 264 l24 84 174 5 c169 5 176 6 215 32 71 47 101 144 69 221 -17
43 -76 93 -123 106 -21 6 -105 11 -188 11 l-150 0 -17 73 c-10 39 -45 126 -78
192 l-59 120 108 110 c60 61 116 124 125 142 20 40 21 125 2 161 -47 91 -149
126 -241 83 -22 -10 -89 -68 -149 -129 l-108 -109 -67 38 c-74 44 -189 90
-268 109 l-53 12 0 159 c0 170 -8 209 -53 257 -44 47 -116 68 -177 50z m198
-833 c180 -43 343 -174 422 -340 50 -106 65 -170 64 -285 -2 -244 -131 -456
-345 -565 -100 -51 -178 -69 -299 -68 -164 1 -301 53 -417 157 -139 125 -213
290 -213 477 0 295 191 545 474 619 87 23 227 25 314 5z"/>
</g>
</svg>
