<?xml version="1.0" standalone="no"?>
<!DOCTYPE svg PUBLIC "-//W3C//DTD SVG 20010904//EN"
 "http://www.w3.org/TR/2001/REC-SVG-20010904/DTD/svg10.dtd">
<svg version="1.0" xmlns="http://www.w3.org/2000/svg"
 width="512.000000pt" height="512.000000pt" viewBox="0 0 512.000000 512.000000"
 preserveAspectRatio="xMidYMid meet">

<g transform="translate(0.000000,512.000000) scale(0.100000,-0.100000)"
fill="#fff" stroke="none">
<path d="M2034 5106 c-18 -8 -474 -393 -1014 -856 -1045 -896 -1020 -872
-1020 -960 0 -41 29 -108 56 -132 29 -26 89 -48 129 -48 46 0 93 20 137 59 20
17 38 31 42 31 3 0 6 -400 6 -889 0 -606 3 -899 11 -918 15 -40 48 -73 94 -94
38 -18 88 -19 989 -19 948 0 950 0 994 21 78 38 120 138 93 222 -15 45 -78
102 -128 116 -25 7 -313 11 -865 11 l-828 0 0 934 0 935 681 583 c374 321 684
584 689 586 5 2 314 -258 687 -578 l678 -581 6 -142 c6 -153 14 -180 66 -229
75 -72 202 -61 262 23 l28 37 44 -37 c60 -52 101 -71 148 -71 72 0 134 38 168
104 21 40 20 113 -1 158 -13 27 -264 248 -983 865 -530 455 -987 840 -1015
856 -55 30 -105 34 -154 13z"/>
<path d="M3570 2920 c-191 -23 -338 -92 -479 -226 -168 -158 -254 -362 -253
-599 1 -185 60 -353 176 -502 l54 -69 -72 -37 c-474 -244 -788 -736 -798
-1251 -2 -108 7 -139 54 -183 59 -56 -15 -53 1410 -53 l1312 0 44 21 c26 13
54 37 70 62 26 39 27 47 26 156 -2 257 -88 523 -245 761 -124 188 -370 402
-566 494 l-61 29 48 58 c297 356 236 891 -133 1173 -167 127 -388 190 -587
166z m182 -371 c136 -29 254 -121 316 -248 36 -75 37 -78 37 -196 0 -117 -1
-122 -36 -195 -48 -102 -116 -170 -216 -217 -183 -88 -406 -42 -540 111 -157
178 -147 453 21 622 109 109 266 155 418 123z m136 -1293 c398 -86 724 -396
827 -786 14 -52 25 -96 25 -97 0 -2 -486 -3 -1080 -3 -1006 0 -1080 1 -1080
17 0 38 44 174 85 260 59 126 129 224 228 320 164 159 358 259 579 298 103 18
313 13 416 -9z"/>
</g>
</svg>
