<svg width="34" height="34" viewBox="0 0 34 34" fill="none" xmlns="http://www.w3.org/2000/svg">
<path d="M4.21484 19.4332L33.1833 2.9136L31.7818 0L0.871738 17.5228L4.21484 19.4332ZM10.7455 23.0638L33.889 9.9037C33.889 9.9037 34.1448 6.8964 33.8796 6.1045C25.0077 11.2447 7.29574 21.1902 7.29574 21.1902L10.7455 23.0638ZM29.8742 34C29.8742 34 29.7714 33.7479 29.6458 33.4763C29.1678 32.4427 28.8009 31.2387 28.5843 29.9931L28.4792 29.3886L17.1572 22.9549L13.8669 24.836L29.8742 34ZM28.347 25.7609C28.347 25.7609 28.4175 25.283 28.4778 24.7261C28.5381 24.1692 28.658 23.4265 28.7442 23.0757C28.8304 22.7249 28.9009 22.3524 28.9009 22.3524L23.6344 19.3133L20.2715 21.1908L28.347 25.7609Z" fill="#319EED"/>
</svg>
